<?xml version="1.0" encoding="UTF-8"?>
<svg width="1492px" height="1154px" viewBox="0 0 1492 1154" version="1.1" xmlns="http://www.w3.org/2000/svg" xmlns:xlink="http://www.w3.org/1999/xlink">
    <title>pomo-comp</title>
    <desc>Created by jm3</desc>
    <defs>
        <linearGradient x1="50%" y1="0%" x2="50%" y2="99.321685%" id="linearGradient-1">
            <stop stop-color="#444444" offset="0%"></stop>
            <stop stop-color="#161A1E" offset="100%"></stop>
        </linearGradient>
        <rect id="path-2" x="131" y="128" width="776" height="541" rx="45"></rect>
        <filter x="-0.7%" y="-1.0%" width="101.4%" height="102.0%" filterUnits="objectBoundingBox" id="filter-3">
            <feGaussianBlur stdDeviation="4" in="SourceAlpha" result="shadowBlurInner1"></feGaussianBlur>
            <feOffset dx="3" dy="3" in="shadowBlurInner1" result="shadowOffsetInner1"></feOffset>
            <feComposite in="shadowOffsetInner1" in2="SourceAlpha" operator="arithmetic" k2="-1" k3="1" result="shadowInnerInner1"></feComposite>
            <feColorMatrix values="0 0 0 0 0.198171422   0 0 0 0 0.0985457241   0 0 0 0 0.0985457241  0 0 0 0.2 0" type="matrix" in="shadowInnerInner1"></feColorMatrix>
        </filter>
        <path d="M391.613366,0 L613.349579,0 C641.516102,-5.1741062e-15 664.349579,22.8334778 664.349579,51 L664.349579,371 C664.349579,399.166522 641.516102,422 613.349579,422 L389.363676,422 C361.197154,422 338.363676,399.166522 338.363676,371 C338.363676,370.880487 338.364096,370.760974 338.364936,370.641464 L340.614626,50.6414645 C340.811657,22.6155511 363.58676,-1.95702336e-15 391.613366,0 Z" id="path-4"></path>
        <filter x="-2.4%" y="-1.9%" width="106.1%" height="104.7%" filterUnits="objectBoundingBox" id="filter-5">
            <feOffset dx="2" dy="2" in="SourceAlpha" result="shadowOffsetOuter1"></feOffset>
            <feGaussianBlur stdDeviation="3" in="shadowOffsetOuter1" result="shadowBlurOuter1"></feGaussianBlur>
            <feColorMatrix values="0 0 0 0 0   0 0 0 0 0   0 0 0 0 0  0 0 0 0.2 0" type="matrix" in="shadowBlurOuter1"></feColorMatrix>
        </filter>
        <rect id="path-6" x="0" y="0" width="326" height="422" rx="51"></rect>
        <filter x="-2.5%" y="-1.9%" width="106.1%" height="104.7%" filterUnits="objectBoundingBox" id="filter-7">
            <feOffset dx="2" dy="2" in="SourceAlpha" result="shadowOffsetOuter1"></feOffset>
            <feGaussianBlur stdDeviation="3" in="shadowOffsetOuter1" result="shadowBlurOuter1"></feGaussianBlur>
            <feColorMatrix values="0 0 0 0 0   0 0 0 0 0   0 0 0 0 0  0 0 0 0.2 0" type="matrix" in="shadowBlurOuter1"></feColorMatrix>
        </filter>
        <path d="M0,210.878307 L672.878536,210.878307 L672.878536,424 L0,424 L0,210.878307 Z M0,-1.70530257e-13 L672.878536,-1.70530257e-13 L672.878536,204.708995 L0,204.708995 L0,-1.70530257e-13 Z" id="path-8"></path>
    </defs>
    <g id="pomo-comp" stroke="none" stroke-width="1" fill="none" fill-rule="evenodd">
        <rect id="page-color" fill="#EB4527" x="18" y="98" width="1442" height="1023"></rect>
        <g id="content" transform="translate(227.000000, 283.000000)">
            <g id="buttons" transform="translate(216.000000, 713.000000)">
                <g id="btn" transform="translate(419.000000, 0.000000)">
                    <g>
                        <rect fill="url(#linearGradient-1)" x="0" y="0" width="187" height="76" rx="38"></rect>
                        <text id="ACTION-LABEL" font-family="AvenirNext-Medium, Avenir Next" font-size="40" font-weight="400" fill="#FFFFFF">
                            <tspan x="43.2312134" y="50.8958333">Reset</tspan>
                        </text>
                    </g>
                </g>
                <g id="btn" transform="translate(210.000000, 0.000000)">
                    <g>
                        <rect fill="url(#linearGradient-1)" x="0" y="0" width="187" height="76" rx="38"></rect>
                        <text id="ACTION-LABEL" font-family="AvenirNext-Medium, Avenir Next" font-size="40" font-weight="400" fill="#FFFFFF">
                            <tspan x="51.0512134" y="50.8958333">Stop</tspan>
                        </text>
                    </g>
                </g>
                <g id="btn">
                    <g>
                        <rect fill="url(#linearGradient-1)" x="0" y="0" width="187" height="76" rx="38"></rect>
                        <text id="ACTION-LABEL" font-family="AvenirNext-Medium, Avenir Next" font-size="40" font-weight="400" fill="#FFFFFF">
                            <tspan x="51.2712134" y="50.8958333">Start</tspan>
                        </text>
                    </g>
                </g>
            </g>
            <g id="clock-region" opacity="0.57921782">
                <use fill="#CB3122" fill-rule="evenodd" xlink:href="#path-2"></use>
                <use fill="black" fill-opacity="1" filter="url(#filter-3)" xlink:href="#path-2"></use>
                <rect stroke-opacity="0.2" stroke="#5E2424" stroke-width="1" stroke-linejoin="square" x="131.5" y="128.5" width="775" height="540" rx="45"></rect>
            </g>
            <g id="timer" transform="translate(182.000000, 187.000000)">
                <g id="under-blur" opacity="0.5" transform="translate(5.000000, 1.000000)">
                    <g id="rect-blur-2">
                        <use fill="black" fill-opacity="1" filter="url(#filter-5)" xlink:href="#path-4"></use>
                        <use fill="#DB341E" fill-rule="evenodd" xlink:href="#path-4"></use>
                    </g>
                    <g id="rect-blur-1">
                        <use fill="black" fill-opacity="1" filter="url(#filter-7)" xlink:href="#path-6"></use>
                        <use fill="#DB341E" fill-rule="evenodd" xlink:href="#path-6"></use>
                    </g>
                </g>
                <g id="flip-clock">
                    <g>
                        <mask id="mask-9" fill="white">
                            <use xlink:href="#path-8"></use>
                        </mask>
                        <use id="split-mask" fill="#D8D8D8" opacity="0" xlink:href="#path-8"></use>
                        <g id="round-rects" mask="url(#mask-9)" fill="#FFFFFF" opacity="0.1">
                            <g transform="translate(5.607321, 1.121693)" id="round-rect">
                                <rect x="0" y="0" width="325.224626" height="421.756614" rx="50"></rect>
                                <rect x="338.121464" y="0" width="325.224626" height="421.756614" rx="50"></rect>
                            </g>
                        </g>
                        <g id="numbers" opacity="0.9" mask="url(#mask-9)" fill="#FFFFFF" fill-rule="nonzero">
                            <g transform="translate(108.782030, 83.005291)">
                                <path d="M388.923794,0 L347.878203,96.2412698 C359.990077,98.4846673 369.410282,104.036993 376.139101,112.898413 C382.86792,121.759833 386.23228,132.471895 386.23228,145.034921 L386.23228,225.12381 C386.23228,239.481553 381.914685,251.147045 373.279368,260.120635 C364.64405,269.094225 354.158464,273.580952 341.822296,273.580952 C329.486128,273.580952 319.056615,269.094225 310.533444,260.120635 C302.010274,251.147045 297.748752,239.481553 297.748752,225.12381 L297.748752,159.84127 L330.7198,159.84127 L330.7198,226.133333 C330.7198,234.658244 334.532741,238.920635 342.158735,238.920635 C349.560436,238.920635 353.261231,234.658244 353.261231,226.133333 L353.261231,144.025397 C353.261231,134.603127 348.887565,129.892063 340.1401,129.892063 C336.102808,129.892063 333.299176,131.35025 331.729118,134.266667 L327.355408,142.679365 L297.075874,130.901587 L339.467221,33.3142857 L297.748752,33.3142857 L297.748752,0 L388.923794,0 Z M491.53777,225.12381 C491.53777,239.481553 487.220176,251.147045 478.584859,260.120635 C469.949541,269.094225 459.463955,273.580952 447.127787,273.580952 C434.791619,273.580952 424.362106,269.094225 415.838935,260.120635 C407.315764,251.147045 403.054243,239.481553 403.054243,225.12381 L403.054243,159.84127 L436.025291,159.84127 L436.025291,226.133333 C436.025291,234.433904 439.838231,238.584127 447.464226,238.584127 C454.865927,238.584127 458.566722,234.433904 458.566722,226.133333 L458.566722,141.333333 C458.566722,133.705782 454.865927,129.892063 447.464226,129.892063 C442.305465,129.892063 438.156089,133.032773 435.015973,139.314286 L433.670216,142.006349 L403.054243,131.238095 L403.054243,0 L486.827621,0 L486.827621,33.3142857 L436.025291,33.3142857 L436.025291,96.2412698 C440.062583,95.1195711 443.875523,94.5587302 447.464226,94.5587302 C459.800394,94.5587302 470.229907,99.0454578 478.753078,108.019048 C487.276249,116.992637 491.53777,128.658129 491.53777,143.015873 L491.53777,225.12381 Z" id="35"></path>
                                <path d="M103.735441,210.990476 L85.5677205,210.990476 L85.5677205,269.206349 L55.6246256,269.206349 L55.6246256,210.990476 L0.112146423,210.990476 L40.8212978,0 L85.5677205,0 L85.5677205,177.67619 L103.735441,177.67619 L103.735441,210.990476 Z M55.6246256,177.67619 L55.6246256,59.5619048 L50.9144759,88.8380952 L35.1018303,177.67619 L55.6246256,177.67619 Z" id="4"></path>
                            </g>
                        </g>
                        <path d="M668.953411,210.878307 L5.60732113,210.878307" id="mid-line" stroke="#979797" opacity="0.5" fill-rule="nonzero" mask="url(#mask-9)"></path>
                    </g>
                </g>
            </g>
            <g id="Timer-Type" transform="translate(132.000000, 0.000000)">
                <g id="pill-lockup" stroke="#FFFFFF" stroke-width="2">
                    <path d="M37.5,1 C17.3416066,1 1,17.3416066 1,37.5 C1,57.6583934 17.3416066,74 37.5,74 L737.5,74 C757.658393,74 774,57.6583934 774,37.5 C774,17.3416066 757.658393,1 737.5,1 L37.5,1 Z" id="pill" fill="#CB3122"></path>
                    <path d="M520,75 L520,0 L520,75 Z" id="v-line-2"></path>
                    <path d="M238.5,75 L238.5,0 L238.5,75 Z" id="v-line-1"></path>
                </g>
                <text id="Long-Break" font-family="AvenirNext-DemiBold, Avenir Next" font-size="20" font-weight="500" letter-spacing="2.666667" fill="#FFFFFF">
                    <tspan x="569" y="45">LONG BREAK</tspan>
                </text>
                <text id="Short-Break" font-family="AvenirNext-DemiBold, Avenir Next" font-size="20" font-weight="500" letter-spacing="2.666667" fill="#FFFFFF">
                    <tspan x="304" y="45">SHORT BREAK</tspan>
                </text>
                <text id="Pomodoro" font-family="AvenirNext-DemiBold, Avenir Next" font-size="20" font-weight="500" letter-spacing="2.666667" fill="#FFFFFF">
                    <tspan x="51" y="45">POMODORO</tspan>
                </text>
            </g>
        </g>
        <g id="top-nav" transform="translate(18.000000, 98.000000)">
            <rect id="top-Nav-rect" fill="#CB3122" x="0" y="0" width="1442" height="140"></rect>
            <g id="button-group" transform="translate(1015.000000, 25.000000)">
                <rect id="Pill---900-color" fill="#AF1F0E" opacity="0.7" x="0" y="0" width="366" height="90" rx="45"></rect>
                <g id="icons-+-text" transform="translate(40.000000, 12.000000)">
                    <text id="04-Share" font-family="AvenirNext-Medium, Avenir Next" font-size="14" font-weight="400" fill="#FFFFFF">
                        <tspan x="239" y="66">Share</tspan>
                    </text>
                    <text id="03-Settings" font-family="AvenirNext-Medium, Avenir Next" font-size="14" font-weight="400" fill="#FFFFFF">
                        <tspan x="154" y="66">Settings</tspan>
                    </text>
                    <text id="02-FAQ" font-family="AvenirNext-Medium, Avenir Next" font-size="14" font-weight="400" fill="#FFFFFF">
                        <tspan x="88" y="66">FAQ</tspan>
                    </text>
                    <text id="01-Log" font-family="AvenirNext-Medium, Avenir Next" font-size="14" font-weight="400" fill="#FFFFFF">
                        <tspan x="13" y="66">Log</tspan>
                    </text>
                    <g id="icons">
                        <g id="share" transform="translate(230.604362, 0.000000)" fill-rule="nonzero" stroke="#FFFFFF" stroke-linejoin="round" stroke-width="2">
                            <g id="share---paper-airplane" transform="translate(0.395638, 0.000000)">
                                <path d="M15.8389951,13.850182 C15.5580496,13.7336627 15.234574,13.7979304 15.0195075,14.0129969 C14.8044411,14.2280633 14.7401733,14.5515389 14.8566926,14.8324845 L18.8911976,24.5726809 L14.8566926,34.3128773 C14.7395061,34.5938252 14.803471,34.9177218 15.0186608,35.1330303 C15.2338507,35.3483388 15.557712,35.4124821 15.8387244,35.2954504 L40.0484612,25.2675198 C40.3296537,25.151321 40.513067,24.8770717 40.513067,24.5728162 C40.513067,24.2685607 40.3296537,23.9943114 40.0484612,23.8781126 C24.0961142,17.2705051 16.0262922,13.9278615 15.8389951,13.850182 Z M15.4751994,14.5766906 C15.464947,14.5511827 15.4676225,14.5222964 15.4823853,14.4991053 C15.4971481,14.4759143 15.522187,14.461264 15.5496368,14.4597563 C15.5577195,14.4597563 23.4330118,17.7194811 39.1755139,24.2389308 L19.4761399,24.2389308 L15.4751994,14.5766906 Z M15.583472,34.6785677 C15.5522091,34.6908146 15.5166555,34.6832464 15.4930911,34.6593284 C15.4695266,34.6354105 15.4624885,34.5997482 15.4751994,34.5686711 L19.4761399,24.9067016 L39.1741605,24.9067016 L15.583472,34.6785677 Z" id="paper-airplane-1837311" transform="translate(27.655924, 24.573008) rotate(-23.000000) translate(-27.655924, -24.573008) "></path>
                            </g>
                        </g>
                        <g id="settings" transform="translate(159.000000, 5.000000)" fill="#FFFFFF">
                            <g id="settings-gear" transform="translate(4.000000, 8.000000)">
                                <path d="M30,13 L28.514,12.514 C28.229,11.491 27.828,10.519 27.317,9.615 L28.021,8.222 C28.802,7.441 28.802,6.174 28.021,5.393 L26.607,3.979 C25.825,3.199 24.56,3.199 23.779,3.979 L22.388,4.685 C21.484,4.173 20.511,3.771 19.489,3.487 L19,1.999 C19,0.895 18.105,0 17,0 L15,0 C13.896,0 13,0.895 13,1.999 L12.515,3.486 C11.495,3.769 10.527,4.168 9.625,4.677 L8.222,3.979 C7.441,3.199 6.175,3.199 5.394,3.979 L3.98,5.393 C3.199,6.174 3.199,7.441 3.98,8.222 L4.677,9.625 C4.171,10.522 3.774,11.486 3.491,12.5 L2,13 C0.896,13 0,13.895 0,15 L0,17 C0,18.105 0.896,19 2,19 L3.491,19.5 C3.774,20.513 4.172,21.478 4.678,22.375 L3.98,23.779 C3.199,24.56 3.199,25.826 3.98,26.607 L5.394,28.021 C6.175,28.803 7.441,28.803 8.222,28.021 L9.626,27.323 C10.523,27.829 11.487,28.227 12.5,28.51 L13,30.001 C13,31.106 13.896,32 15,32 L17,32 C18.105,32 19,31.106 19,30.001 L19.5,28.51 C20.518,28.226 21.485,27.826 22.385,27.316 L23.779,28.021 C24.56,28.803 25.825,28.803 26.607,28.021 L28.021,26.607 C28.802,25.826 28.802,24.56 28.021,23.779 L27.315,22.388 C27.826,21.483 28.228,20.512 28.513,19.489 L30,19 C31.105,19 32,18.105 32,17 L32,15 C32,13.895 31.105,13 30,13 L30,13 Z M16,22.001 C12.687,22.001 10,19.314 10,16 C10,12.686 12.687,9.999 16,9.999 C19.314,9.999 22,12.686 22,16 C22,19.314 19.314,22.001 16,22.001 L16,22.001 Z" id="gear" opacity="0.897681"></path>
                                <path d="M16,3 C23.18,3 29,8.821 29,16 C29,23.18 23.18,29 16,29 C8.82,29 3,23.18 3,16 C3,8.821 8.82,3 16,3 Z M16,12 C13.791,12 12,13.791 12,16 C12,18.21 13.791,20.001 16,20.001 C18.209,20.001 20,18.21 20,16 C20,13.791 18.209,12 16,12 Z" id="Fill-267" opacity="0.246884301"></path>
                                <path d="M16,9.001 C19.866,9.001 23,12.135 23,16 C23,19.867 19.866,23 16,23 C12.134,23 9,19.867 9,16 C9,12.135 12.134,9.001 16,9.001 Z M16,12 C13.791,12 12,13.791 12,16 C12,18.21 13.791,20.001 16,20.001 C18.209,20.001 20,18.21 20,16 C20,13.791 18.209,12 16,12 Z" id="Fill-265" opacity="0.413853237"></path>
                            </g>
                        </g>
                        <g id="FAQ" transform="translate(84.000000, 5.000000)" fill="#FFFFFF" font-family="AvenirNext-Bold, Avenir Next" font-size="34" font-weight="bold">
                            <text id="?">
                                <tspan x="10" y="34">?</tspan>
                            </text>
                        </g>
                        <g id="Log" fill="#FFFFFF">
                            <g id="log---small-pape" transform="translate(8.000000, 7.000000)">
                                <path d="M33,0.3 L3,0.3 C1.3,0.3 0,1.6 0,3.3 L0,41.3 C0,43 1.3,44.3 3,44.3 L33,44.3 C34.7,44.3 36,43 36,41.3 L36,3.3 C36,1.6 34.7,0.3 33,0.3 L33,0.3 Z M34,41.3 C34,41.9 33.6,42.3 33,42.3 L3,42.3 C2.4,42.3 2,41.9 2,41.3 L2,3.3 C2,2.7 2.4,2.3 3,2.3 L33,2.3 C33.6,2.3 34,2.7 34,3.3 L34,41.3 L34,41.3 Z" id="Shape"></path>
                                <rect id="Rectangle-path" x="16" y="27.8" width="12" height="1"></rect>
                                <rect id="Rectangle-path" x="16" y="23.8" width="12" height="1"></rect>
                                <rect id="Rectangle-path" x="16" y="31.8" width="12" height="1"></rect>
                                <rect id="Rectangle-path" x="16" y="15.8" width="12" height="1"></rect>
                                <rect id="Rectangle-path" x="16" y="11.8" width="12" height="1"></rect>
                                <rect id="Rectangle-path" x="16" y="19.8" width="12" height="1"></rect>
                                <rect id="Rectangle-path" x="8" y="27.8" width="4" height="1"></rect>
                                <rect id="Rectangle-path" x="8" y="23.8" width="4" height="1"></rect>
                                <rect id="Rectangle-path" x="8" y="31.8" width="4" height="1"></rect>
                                <rect id="Rectangle-path" x="8" y="15.8" width="4" height="1"></rect>
                                <rect id="Rectangle-path" x="8" y="11.8" width="4" height="1"></rect>
                                <rect id="Rectangle-path" x="8" y="19.8" width="4" height="1"></rect>
                            </g>
                        </g>
                    </g>
                </g>
            </g>
            <text id="APP-TITLE" font-family="CactusMedium" font-size="60" font-weight="normal" fill="#FFFFFF">
                <tspan x="75" y="100">TOMATO TIMER</tspan>
            </text>
        </g>
    </g>
</svg>
